<svg width="64" height="64" version="1.1" viewBox="0 0 16.9 16.9" xmlns="http://www.w3.org/2000/svg">
 <defs>
  <radialGradient id="radialGradient4326" cx="5.6" cy="13.9" r="4.16" gradientTransform="matrix(1.14 0 0 .153 -.91 11.9)" gradientUnits="userSpaceOnUse">
   <stop stop-color="#1a1a1a" offset="0"/>
   <stop stop-color="#1a1a1a" stop-opacity="0" offset="1"/>
  </radialGradient>
 </defs>
 <rect width="16.9" height="16.9" ry="1.77" fill="#333"/>
 <g transform="translate(19.9 -10.5)">
  <rect x="1.19" y="4.65" width="5.93" height="9.48" ry=".496" fill="#800000" stroke="#999" stroke-linecap="round" stroke-linejoin="round" stroke-width=".065"/>
  <path transform="scale(.265)" d="m4.51 42.3v3.74l7.31 7.31h3.74z" fill="#a00"/>
  <path transform="scale(.265)" d="m8 17.6 18.9 18.9v-3.74l-15.2-15.2z" fill="#a00"/>
  <path transform="scale(.265)" d="m4.51 46.3v3.74l3.31 3.31h3.74z" fill="#a00"/>
  <path transform="scale(.265)" d="m4.51 38.3v3.74l11.3 11.3h3.74z" fill="#a00"/>
  <path transform="scale(.265)" d="m4.51 34.3v3.74l15.3 15.3h3.74z" fill="#a00"/>
  <path transform="scale(.265)" d="m4.51 30.3v3.74l19.3 19.3h1.23c.683 0 1.27-.364 1.6-.906z" fill="#a00"/>
  <path transform="scale(.265)" d="m4.51 26.3v3.74l22.2 22.2c.115-.244.186-.514.186-.803v-2.75z" fill="#a00"/>
  <path transform="scale(.265)" d="m4.51 22.3v3.74l22.4 22.4v-3.74z" fill="#a00"/>
  <path transform="scale(.265)" d="m4.74 18.6c-.14.263-.227.559-.227.879v2.64l22.4 22.4v-3.74z" fill="#a00"/>
  <path transform="scale(.265)" d="m6.39 17.6c-.652 0-1.22.33-1.56.832l22.1 22.1v-3.74l-19.2-19.2z" fill="#a00"/>
  <path transform="scale(.265)" d="m12 17.6 14.9 14.9v-3.74l-11.2-11.2z" fill="#a00"/>
  <path transform="scale(.265)" d="m16 17.6 10.9 10.9v-3.74l-7.2-7.2z" fill="#a00"/>
  <path transform="scale(.265)" d="m20 17.6 6.94 6.94v-3.74l-3.2-3.2z" fill="#a00"/>
  <path d="m1.23 7.61 2.98-2.98" fill="none" stroke="#d45500" stroke-width=".065"/>
  <path d="m1.19 6.99 2.32-2.32" fill="#d45500" stroke="#d45500" stroke-width=".065"/>
  <path d="m1.19 6.07 1.39-1.39" fill="#d45500" stroke="#d45500" stroke-width=".065"/>
  <path d="m1.2 8.29 3.61-3.61" fill="#d45500" stroke="#d45500" stroke-width=".065"/>
  <path d="m1.2 8.88 4.23-4.23" fill="#d45500" stroke="#d45500" stroke-width=".065"/>
  <g fill="#d45500" stroke="#d45500" stroke-width=".065">
   <path d="m1.22 9.51 4.83-4.83"/>
   <path d="m1.2 10.2 5.5-5.5"/>
   <path d="m1.19 10.8 5.88-5.88"/>
  </g>
  <path d="m7.09 11.2-2.98 2.98" fill="none" stroke="#d45500" stroke-width=".065"/>
  <path d="m7.13 11.8-2.32 2.32" fill="#d45500" stroke="#d45500" stroke-width=".065"/>
  <path d="m7.13 12.7-1.39 1.39" fill="#d45500" stroke="#d45500" stroke-width=".065"/>
  <g fill="#d45500" stroke="#d45500" stroke-width=".065">
   <path d="m7.11 10.5-3.61 3.61"/>
   <path d="m7.11 9.89-4.23 4.23"/>
   <path d="m7.1 9.25-4.83 4.83"/>
   <path d="m7.11 8.6-5.5 5.5"/>
   <path d="m7.13 7.97-5.88 5.88"/>
   <path d="m1.19 13.3 5.94-5.94"/>
   <path d="m1.19 12.5 5.94-5.94"/>
   <path d="m1.19 11.4 5.94-5.94"/>
   <path d="m1.19 11.9 5.94-5.94"/>
  </g>
  <path transform="scale(.265)" d="m26.9 26.4-1.04 1.04 1.04 1.04z" fill="#a00"/>
  <rect x="1.19" y="4.65" width="5.93" height="9.48" ry=".496" fill="none" stroke="#999" stroke-linecap="round" stroke-linejoin="round" stroke-width=".065"/>
 </g>
 <g transform="matrix(.85 0 0 .85 .564 20)">
  <g transform="matrix(-.731 .499 .873 .441 6.37 -16.2)">
   <rect x="1.19" y="4.65" width="5.93" height="9.48" ry=".496" fill="#800000" stroke="#999" stroke-linecap="round" stroke-linejoin="round" stroke-width=".065"/>
   <path transform="scale(.265)" d="m4.51 42.3v3.74l7.31 7.31h3.74z" fill="#a00"/>
   <path transform="scale(.265)" d="m8 17.6 18.9 18.9v-3.74l-15.2-15.2z" fill="#a00"/>
   <path transform="scale(.265)" d="m4.51 46.3v3.74l3.31 3.31h3.74z" fill="#a00"/>
   <path transform="scale(.265)" d="m4.51 38.3v3.74l11.3 11.3h3.74z" fill="#a00"/>
   <path transform="scale(.265)" d="m4.51 34.3v3.74l15.3 15.3h3.74z" fill="#a00"/>
   <path transform="scale(.265)" d="m4.51 30.3v3.74l19.3 19.3h1.23c.683 0 1.27-.364 1.6-.906z" fill="#a00"/>
   <path transform="scale(.265)" d="m4.51 26.3v3.74l22.2 22.2c.115-.244.186-.514.186-.803v-2.75z" fill="#a00"/>
   <path transform="scale(.265)" d="m4.51 22.3v3.74l22.4 22.4v-3.74z" fill="#a00"/>
   <path transform="scale(.265)" d="m4.74 18.6c-.14.263-.227.559-.227.879v2.64l22.4 22.4v-3.74z" fill="#a00"/>
   <path transform="scale(.265)" d="m6.39 17.6c-.652 0-1.22.33-1.56.832l22.1 22.1v-3.74l-19.2-19.2z" fill="#a00"/>
   <path transform="scale(.265)" d="m12 17.6 14.9 14.9v-3.74l-11.2-11.2z" fill="#a00"/>
   <path transform="scale(.265)" d="m16 17.6 10.9 10.9v-3.74l-7.2-7.2z" fill="#a00"/>
   <path transform="scale(.265)" d="m20 17.6 6.94 6.94v-3.74l-3.2-3.2z" fill="#a00"/>
   <path d="m1.23 7.61 2.98-2.98" fill="none" stroke="#d45500" stroke-width=".065"/>
   <path d="m1.19 6.99 2.32-2.32" fill="#d45500" stroke="#d45500" stroke-width=".065"/>
   <path d="m1.19 6.07 1.39-1.39" fill="#d45500" stroke="#d45500" stroke-width=".065"/>
   <path d="m1.2 8.29 3.61-3.61" fill="#d45500" stroke="#d45500" stroke-width=".065"/>
   <path d="m1.2 8.88 4.23-4.23" fill="#d45500" stroke="#d45500" stroke-width=".065"/>
   <g fill="#d45500" stroke="#d45500" stroke-width=".065">
    <path d="m1.22 9.51 4.83-4.83"/>
    <path d="m1.2 10.2 5.5-5.5"/>
    <path d="m1.19 10.8 5.88-5.88"/>
   </g>
   <path d="m7.09 11.2-2.98 2.98" fill="none" stroke="#d45500" stroke-width=".065"/>
   <path d="m7.13 11.8-2.32 2.32" fill="#d45500" stroke="#d45500" stroke-width=".065"/>
   <path d="m7.13 12.7-1.39 1.39" fill="#d45500" stroke="#d45500" stroke-width=".065"/>
   <g fill="#d45500" stroke="#d45500" stroke-width=".065">
    <path d="m7.11 10.5-3.61 3.61"/>
    <path d="m7.11 9.89-4.23 4.23"/>
    <path d="m7.1 9.25-4.83 4.83"/>
    <path d="m7.11 8.6-5.5 5.5"/>
    <path d="m7.13 7.97-5.88 5.88"/>
    <path d="m1.19 13.3 5.94-5.94"/>
    <path d="m1.19 12.5 5.94-5.94"/>
    <path d="m1.19 11.4 5.94-5.94"/>
    <path d="m1.19 11.9 5.94-5.94"/>
   </g>
   <path transform="scale(.265)" d="m26.9 26.4-1.04 1.04 1.04 1.04z" fill="#a00"/>
   <rect x="1.19" y="4.65" width="5.93" height="9.48" ry=".496" fill="none" stroke="#999" stroke-linecap="round" stroke-linejoin="round" stroke-width=".065"/>
  </g>
  <g transform="matrix(-.731 .499 .873 .441 6.37 -16.3)">
   <rect x="1.19" y="4.65" width="5.93" height="9.48" ry=".496" fill="#800000" stroke="#999" stroke-linecap="round" stroke-linejoin="round" stroke-width=".065"/>
   <path transform="scale(.265)" d="m4.51 42.3v3.74l7.31 7.31h3.74z" fill="#a00"/>
   <path transform="scale(.265)" d="m8 17.6 18.9 18.9v-3.74l-15.2-15.2z" fill="#a00"/>
   <path transform="scale(.265)" d="m4.51 46.3v3.74l3.31 3.31h3.74z" fill="#a00"/>
   <path transform="scale(.265)" d="m4.51 38.3v3.74l11.3 11.3h3.74z" fill="#a00"/>
   <path transform="scale(.265)" d="m4.51 34.3v3.74l15.3 15.3h3.74z" fill="#a00"/>
   <path transform="scale(.265)" d="m4.51 30.3v3.74l19.3 19.3h1.23c.683 0 1.27-.364 1.6-.906z" fill="#a00"/>
   <path transform="scale(.265)" d="m4.51 26.3v3.74l22.2 22.2c.115-.244.186-.514.186-.803v-2.75z" fill="#a00"/>
   <path transform="scale(.265)" d="m4.51 22.3v3.74l22.4 22.4v-3.74z" fill="#a00"/>
   <path transform="scale(.265)" d="m4.74 18.6c-.14.263-.227.559-.227.879v2.64l22.4 22.4v-3.74z" fill="#a00"/>
   <path transform="scale(.265)" d="m6.39 17.6c-.652 0-1.22.33-1.56.832l22.1 22.1v-3.74l-19.2-19.2z" fill="#a00"/>
   <path transform="scale(.265)" d="m12 17.6 14.9 14.9v-3.74l-11.2-11.2z" fill="#a00"/>
   <path transform="scale(.265)" d="m16 17.6 10.9 10.9v-3.74l-7.2-7.2z" fill="#a00"/>
   <path transform="scale(.265)" d="m20 17.6 6.94 6.94v-3.74l-3.2-3.2z" fill="#a00"/>
   <path d="m1.23 7.61 2.98-2.98" fill="none" stroke="#d45500" stroke-width=".065"/>
   <path d="m1.19 6.99 2.32-2.32" fill="#d45500" stroke="#d45500" stroke-width=".065"/>
   <path d="m1.19 6.07 1.39-1.39" fill="#d45500" stroke="#d45500" stroke-width=".065"/>
   <path d="m1.2 8.29 3.61-3.61" fill="#d45500" stroke="#d45500" stroke-width=".065"/>
   <path d="m1.2 8.88 4.23-4.23" fill="#d45500" stroke="#d45500" stroke-width=".065"/>
   <g fill="#d45500" stroke="#d45500" stroke-width=".065">
    <path d="m1.22 9.51 4.83-4.83"/>
    <path d="m1.2 10.2 5.5-5.5"/>
    <path d="m1.19 10.8 5.88-5.88"/>
   </g>
   <path d="m7.09 11.2-2.98 2.98" fill="none" stroke="#d45500" stroke-width=".065"/>
   <path d="m7.13 11.8-2.32 2.32" fill="#d45500" stroke="#d45500" stroke-width=".065"/>
   <path d="m7.13 12.7-1.39 1.39" fill="#d45500" stroke="#d45500" stroke-width=".065"/>
   <g fill="#d45500" stroke="#d45500" stroke-width=".065">
    <path d="m7.11 10.5-3.61 3.61"/>
    <path d="m7.11 9.89-4.23 4.23"/>
    <path d="m7.1 9.25-4.83 4.83"/>
    <path d="m7.11 8.6-5.5 5.5"/>
    <path d="m7.13 7.97-5.88 5.88"/>
    <path d="m1.19 13.3 5.94-5.94"/>
    <path d="m1.19 12.5 5.94-5.94"/>
    <path d="m1.19 11.4 5.94-5.94"/>
    <path d="m1.19 11.9 5.94-5.94"/>
   </g>
   <path transform="scale(.265)" d="m26.9 26.4-1.04 1.04 1.04 1.04z" fill="#a00"/>
   <rect x="1.19" y="4.65" width="5.93" height="9.48" ry=".496" fill="none" stroke="#999" stroke-linecap="round" stroke-linejoin="round" stroke-width=".065"/>
  </g>
  <g transform="matrix(-.731 .499 .873 .441 6.37 -16.4)">
   <rect x="1.19" y="4.65" width="5.93" height="9.48" ry=".496" fill="#800000" stroke="#999" stroke-linecap="round" stroke-linejoin="round" stroke-width=".065"/>
   <path transform="scale(.265)" d="m4.51 42.3v3.74l7.31 7.31h3.74z" fill="#a00"/>
   <path transform="scale(.265)" d="m8 17.6 18.9 18.9v-3.74l-15.2-15.2z" fill="#a00"/>
   <path transform="scale(.265)" d="m4.51 46.3v3.74l3.31 3.31h3.74z" fill="#a00"/>
   <path transform="scale(.265)" d="m4.51 38.3v3.74l11.3 11.3h3.74z" fill="#a00"/>
   <path transform="scale(.265)" d="m4.51 34.3v3.74l15.3 15.3h3.74z" fill="#a00"/>
   <path transform="scale(.265)" d="m4.51 30.3v3.74l19.3 19.3h1.23c.683 0 1.27-.364 1.6-.906z" fill="#a00"/>
   <path transform="scale(.265)" d="m4.51 26.3v3.74l22.2 22.2c.115-.244.186-.514.186-.803v-2.75z" fill="#a00"/>
   <path transform="scale(.265)" d="m4.51 22.3v3.74l22.4 22.4v-3.74z" fill="#a00"/>
   <path transform="scale(.265)" d="m4.74 18.6c-.14.263-.227.559-.227.879v2.64l22.4 22.4v-3.74z" fill="#a00"/>
   <path transform="scale(.265)" d="m6.39 17.6c-.652 0-1.22.33-1.56.832l22.1 22.1v-3.74l-19.2-19.2z" fill="#a00"/>
   <path transform="scale(.265)" d="m12 17.6 14.9 14.9v-3.74l-11.2-11.2z" fill="#a00"/>
   <path transform="scale(.265)" d="m16 17.6 10.9 10.9v-3.74l-7.2-7.2z" fill="#a00"/>
   <path transform="scale(.265)" d="m20 17.6 6.94 6.94v-3.74l-3.2-3.2z" fill="#a00"/>
   <path d="m1.23 7.61 2.98-2.98" fill="none" stroke="#d45500" stroke-width=".065"/>
   <path d="m1.19 6.99 2.32-2.32" fill="#d45500" stroke="#d45500" stroke-width=".065"/>
   <path d="m1.19 6.07 1.39-1.39" fill="#d45500" stroke="#d45500" stroke-width=".065"/>
   <path d="m1.2 8.29 3.61-3.61" fill="#d45500" stroke="#d45500" stroke-width=".065"/>
   <path d="m1.2 8.88 4.23-4.23" fill="#d45500" stroke="#d45500" stroke-width=".065"/>
   <g fill="#d45500" stroke="#d45500" stroke-width=".065">
    <path d="m1.22 9.51 4.83-4.83"/>
    <path d="m1.2 10.2 5.5-5.5"/>
    <path d="m1.19 10.8 5.88-5.88"/>
   </g>
   <path d="m7.09 11.2-2.98 2.98" fill="none" stroke="#d45500" stroke-width=".065"/>
   <path d="m7.13 11.8-2.32 2.32" fill="#d45500" stroke="#d45500" stroke-width=".065"/>
   <path d="m7.13 12.7-1.39 1.39" fill="#d45500" stroke="#d45500" stroke-width=".065"/>
   <g fill="#d45500" stroke="#d45500" stroke-width=".065">
    <path d="m7.11 10.5-3.61 3.61"/>
    <path d="m7.11 9.89-4.23 4.23"/>
    <path d="m7.1 9.25-4.83 4.83"/>
    <path d="m7.11 8.6-5.5 5.5"/>
    <path d="m7.13 7.97-5.88 5.88"/>
    <path d="m1.19 13.3 5.94-5.94"/>
    <path d="m1.19 12.5 5.94-5.94"/>
    <path d="m1.19 11.4 5.94-5.94"/>
    <path d="m1.19 11.9 5.94-5.94"/>
   </g>
   <path transform="scale(.265)" d="m26.9 26.4-1.04 1.04 1.04 1.04z" fill="#a00"/>
   <rect x="1.19" y="4.65" width="5.93" height="9.48" ry=".496" fill="none" stroke="#999" stroke-linecap="round" stroke-linejoin="round" stroke-width=".065"/>
  </g>
  <g transform="matrix(-.731 .499 .873 .441 6.37 -16.5)">
   <rect x="1.19" y="4.65" width="5.93" height="9.48" ry=".496" fill="#800000" stroke="#999" stroke-linecap="round" stroke-linejoin="round" stroke-width=".065"/>
   <path transform="scale(.265)" d="m4.51 42.3v3.74l7.31 7.31h3.74z" fill="#a00"/>
   <path transform="scale(.265)" d="m8 17.6 18.9 18.9v-3.74l-15.2-15.2z" fill="#a00"/>
   <path transform="scale(.265)" d="m4.51 46.3v3.74l3.31 3.31h3.74z" fill="#a00"/>
   <path transform="scale(.265)" d="m4.51 38.3v3.74l11.3 11.3h3.74z" fill="#a00"/>
   <path transform="scale(.265)" d="m4.51 34.3v3.74l15.3 15.3h3.74z" fill="#a00"/>
   <path transform="scale(.265)" d="m4.51 30.3v3.74l19.3 19.3h1.23c.683 0 1.27-.364 1.6-.906z" fill="#a00"/>
   <path transform="scale(.265)" d="m4.51 26.3v3.74l22.2 22.2c.115-.244.186-.514.186-.803v-2.75z" fill="#a00"/>
   <path transform="scale(.265)" d="m4.51 22.3v3.74l22.4 22.4v-3.74z" fill="#a00"/>
   <path transform="scale(.265)" d="m4.74 18.6c-.14.263-.227.559-.227.879v2.64l22.4 22.4v-3.74z" fill="#a00"/>
   <path transform="scale(.265)" d="m6.39 17.6c-.652 0-1.22.33-1.56.832l22.1 22.1v-3.74l-19.2-19.2z" fill="#a00"/>
   <path transform="scale(.265)" d="m12 17.6 14.9 14.9v-3.74l-11.2-11.2z" fill="#a00"/>
   <path transform="scale(.265)" d="m16 17.6 10.9 10.9v-3.74l-7.2-7.2z" fill="#a00"/>
   <path transform="scale(.265)" d="m20 17.6 6.94 6.94v-3.74l-3.2-3.2z" fill="#a00"/>
   <path d="m1.23 7.61 2.98-2.98" fill="none" stroke="#d45500" stroke-width=".065"/>
   <path d="m1.19 6.99 2.32-2.32" fill="#d45500" stroke="#d45500" stroke-width=".065"/>
   <path d="m1.19 6.07 1.39-1.39" fill="#d45500" stroke="#d45500" stroke-width=".065"/>
   <path d="m1.2 8.29 3.61-3.61" fill="#d45500" stroke="#d45500" stroke-width=".065"/>
   <path d="m1.2 8.88 4.23-4.23" fill="#d45500" stroke="#d45500" stroke-width=".065"/>
   <g fill="#d45500" stroke="#d45500" stroke-width=".065">
    <path d="m1.22 9.51 4.83-4.83"/>
    <path d="m1.2 10.2 5.5-5.5"/>
    <path d="m1.19 10.8 5.88-5.88"/>
   </g>
   <path d="m7.09 11.2-2.98 2.98" fill="none" stroke="#d45500" stroke-width=".065"/>
   <path d="m7.13 11.8-2.32 2.32" fill="#d45500" stroke="#d45500" stroke-width=".065"/>
   <path d="m7.13 12.7-1.39 1.39" fill="#d45500" stroke="#d45500" stroke-width=".065"/>
   <g fill="#d45500" stroke="#d45500" stroke-width=".065">
    <path d="m7.11 10.5-3.61 3.61"/>
    <path d="m7.11 9.89-4.23 4.23"/>
    <path d="m7.1 9.25-4.83 4.83"/>
    <path d="m7.11 8.6-5.5 5.5"/>
    <path d="m7.13 7.97-5.88 5.88"/>
    <path d="m1.19 13.3 5.94-5.94"/>
    <path d="m1.19 12.5 5.94-5.94"/>
    <path d="m1.19 11.4 5.94-5.94"/>
    <path d="m1.19 11.9 5.94-5.94"/>
   </g>
   <path transform="scale(.265)" d="m26.9 26.4-1.04 1.04 1.04 1.04z" fill="#a00"/>
   <rect x="1.19" y="4.65" width="5.93" height="9.48" ry=".496" fill="none" stroke="#999" stroke-linecap="round" stroke-linejoin="round" stroke-width=".065"/>
   <rect x="1.19" y="4.65" width="5.93" height="9.48" ry=".496" fill="#800000" stroke="#999" stroke-linecap="round" stroke-linejoin="round" stroke-width=".065"/>
   <path transform="scale(.265)" d="m4.51 42.3v3.74l7.31 7.31h3.74z" fill="#a00"/>
   <path transform="scale(.265)" d="m8 17.6 18.9 18.9v-3.74l-15.2-15.2z" fill="#a00"/>
   <path transform="scale(.265)" d="m4.51 46.3v3.74l3.31 3.31h3.74z" fill="#a00"/>
   <path transform="scale(.265)" d="m4.51 38.3v3.74l11.3 11.3h3.74z" fill="#a00"/>
   <path transform="scale(.265)" d="m4.51 34.3v3.74l15.3 15.3h3.74z" fill="#a00"/>
   <path transform="scale(.265)" d="m4.51 30.3v3.74l19.3 19.3h1.23c.683 0 1.27-.364 1.6-.906z" fill="#a00"/>
   <path transform="scale(.265)" d="m4.51 26.3v3.74l22.2 22.2c.115-.244.186-.514.186-.803v-2.75z" fill="#a00"/>
   <path transform="scale(.265)" d="m4.51 22.3v3.74l22.4 22.4v-3.74z" fill="#a00"/>
   <path transform="scale(.265)" d="m4.74 18.6c-.14.263-.227.559-.227.879v2.64l22.4 22.4v-3.74z" fill="#a00"/>
   <path transform="scale(.265)" d="m6.39 17.6c-.652 0-1.22.33-1.56.832l22.1 22.1v-3.74l-19.2-19.2z" fill="#a00"/>
   <path transform="scale(.265)" d="m12 17.6 14.9 14.9v-3.74l-11.2-11.2z" fill="#a00"/>
   <path transform="scale(.265)" d="m16 17.6 10.9 10.9v-3.74l-7.2-7.2z" fill="#a00"/>
   <path transform="scale(.265)" d="m20 17.6 6.94 6.94v-3.74l-3.2-3.2z" fill="#a00"/>
   <path d="m1.23 7.61 2.98-2.98" fill="none" stroke="#d45500" stroke-width=".065"/>
   <path d="m1.19 6.99 2.32-2.32" fill="#d45500" stroke="#d45500" stroke-width=".065"/>
   <path d="m1.19 6.07 1.39-1.39" fill="#d45500" stroke="#d45500" stroke-width=".065"/>
   <path d="m1.2 8.29 3.61-3.61" fill="#d45500" stroke="#d45500" stroke-width=".065"/>
   <path d="m1.2 8.88 4.23-4.23" fill="#d45500" stroke="#d45500" stroke-width=".065"/>
   <g fill="#d45500" stroke="#d45500" stroke-width=".065">
    <path d="m1.22 9.51 4.83-4.83"/>
    <path d="m1.2 10.2 5.5-5.5"/>
    <path d="m1.19 10.8 5.88-5.88"/>
   </g>
   <path d="m7.09 11.2-2.98 2.98" fill="none" stroke="#d45500" stroke-width=".065"/>
   <path d="m7.13 11.8-2.32 2.32" fill="#d45500" stroke="#d45500" stroke-width=".065"/>
   <path d="m7.13 12.7-1.39 1.39" fill="#d45500" stroke="#d45500" stroke-width=".065"/>
   <g fill="#d45500" stroke="#d45500" stroke-width=".065">
    <path d="m7.11 10.5-3.61 3.61"/>
    <path d="m7.11 9.89-4.23 4.23"/>
    <path d="m7.1 9.25-4.83 4.83"/>
    <path d="m7.11 8.6-5.5 5.5"/>
    <path d="m7.13 7.97-5.88 5.88"/>
    <path d="m1.19 13.3 5.94-5.94"/>
    <path d="m1.19 12.5 5.94-5.94"/>
    <path d="m1.19 11.4 5.94-5.94"/>
    <path d="m1.19 11.9 5.94-5.94"/>
   </g>
   <path transform="scale(.265)" d="m26.9 26.4-1.04 1.04 1.04 1.04z" fill="#a00"/>
   <rect x="1.19" y="4.65" width="5.93" height="9.48" ry=".496" fill="none" stroke="#999" stroke-linecap="round" stroke-linejoin="round" stroke-width=".065"/>
  </g>
  <g transform="matrix(-.731 .499 .873 .441 6.37 -16.6)">
   <rect x="1.19" y="4.65" width="5.93" height="9.48" ry=".496" fill="#800000" stroke="#999" stroke-linecap="round" stroke-linejoin="round" stroke-width=".065"/>
   <path transform="scale(.265)" d="m4.51 42.3v3.74l7.31 7.31h3.74z" fill="#a00"/>
   <path transform="scale(.265)" d="m8 17.6 18.9 18.9v-3.74l-15.2-15.2z" fill="#a00"/>
   <path transform="scale(.265)" d="m4.51 46.3v3.74l3.31 3.31h3.74z" fill="#a00"/>
   <path transform="scale(.265)" d="m4.51 38.3v3.74l11.3 11.3h3.74z" fill="#a00"/>
   <path transform="scale(.265)" d="m4.51 34.3v3.74l15.3 15.3h3.74z" fill="#a00"/>
   <path transform="scale(.265)" d="m4.51 30.3v3.74l19.3 19.3h1.23c.683 0 1.27-.364 1.6-.906z" fill="#a00"/>
   <path transform="scale(.265)" d="m4.51 26.3v3.74l22.2 22.2c.115-.244.186-.514.186-.803v-2.75z" fill="#a00"/>
   <path transform="scale(.265)" d="m4.51 22.3v3.74l22.4 22.4v-3.74z" fill="#a00"/>
   <path transform="scale(.265)" d="m4.74 18.6c-.14.263-.227.559-.227.879v2.64l22.4 22.4v-3.74z" fill="#a00"/>
   <path transform="scale(.265)" d="m6.39 17.6c-.652 0-1.22.33-1.56.832l22.1 22.1v-3.74l-19.2-19.2z" fill="#a00"/>
   <path transform="scale(.265)" d="m12 17.6 14.9 14.9v-3.74l-11.2-11.2z" fill="#a00"/>
   <path transform="scale(.265)" d="m16 17.6 10.9 10.9v-3.74l-7.2-7.2z" fill="#a00"/>
   <path transform="scale(.265)" d="m20 17.6 6.94 6.94v-3.74l-3.2-3.2z" fill="#a00"/>
   <path d="m1.23 7.61 2.98-2.98" fill="none" stroke="#d45500" stroke-width=".065"/>
   <path d="m1.19 6.99 2.32-2.32" fill="#d45500" stroke="#d45500" stroke-width=".065"/>
   <path d="m1.19 6.07 1.39-1.39" fill="#d45500" stroke="#d45500" stroke-width=".065"/>
   <path d="m1.2 8.29 3.61-3.61" fill="#d45500" stroke="#d45500" stroke-width=".065"/>
   <path d="m1.2 8.88 4.23-4.23" fill="#d45500" stroke="#d45500" stroke-width=".065"/>
   <g fill="#d45500" stroke="#d45500" stroke-width=".065">
    <path d="m1.22 9.51 4.83-4.83"/>
    <path d="m1.2 10.2 5.5-5.5"/>
    <path d="m1.19 10.8 5.88-5.88"/>
   </g>
   <path d="m7.09 11.2-2.98 2.98" fill="none" stroke="#d45500" stroke-width=".065"/>
   <path d="m7.13 11.8-2.32 2.32" fill="#d45500" stroke="#d45500" stroke-width=".065"/>
   <path d="m7.13 12.7-1.39 1.39" fill="#d45500" stroke="#d45500" stroke-width=".065"/>
   <g fill="#d45500" stroke="#d45500" stroke-width=".065">
    <path d="m7.11 10.5-3.61 3.61"/>
    <path d="m7.11 9.89-4.23 4.23"/>
    <path d="m7.1 9.25-4.83 4.83"/>
    <path d="m7.11 8.6-5.5 5.5"/>
    <path d="m7.13 7.97-5.88 5.88"/>
    <path d="m1.19 13.3 5.94-5.94"/>
    <path d="m1.19 12.5 5.94-5.94"/>
    <path d="m1.19 11.4 5.94-5.94"/>
    <path d="m1.19 11.9 5.94-5.94"/>
   </g>
   <path transform="scale(.265)" d="m26.9 26.4-1.04 1.04 1.04 1.04z" fill="#a00"/>
   <rect x="1.19" y="4.65" width="5.93" height="9.48" ry=".496" fill="none" stroke="#999" stroke-linecap="round" stroke-linejoin="round" stroke-width=".065"/>
  </g>
  <g transform="matrix(-.731 .499 .873 .441 6.37 -16.7)">
   <rect x="1.19" y="4.65" width="5.93" height="9.48" ry=".496" fill="#800000" stroke="#999" stroke-linecap="round" stroke-linejoin="round" stroke-width=".065"/>
   <path transform="scale(.265)" d="m4.51 42.3v3.74l7.31 7.31h3.74z" fill="#a00"/>
   <path transform="scale(.265)" d="m8 17.6 18.9 18.9v-3.74l-15.2-15.2z" fill="#a00"/>
   <path transform="scale(.265)" d="m4.51 46.3v3.74l3.31 3.31h3.74z" fill="#a00"/>
   <path transform="scale(.265)" d="m4.51 38.3v3.74l11.3 11.3h3.74z" fill="#a00"/>
   <path transform="scale(.265)" d="m4.51 34.3v3.74l15.3 15.3h3.74z" fill="#a00"/>
   <path transform="scale(.265)" d="m4.51 30.3v3.74l19.3 19.3h1.23c.683 0 1.27-.364 1.6-.906z" fill="#a00"/>
   <path transform="scale(.265)" d="m4.51 26.3v3.74l22.2 22.2c.115-.244.186-.514.186-.803v-2.75z" fill="#a00"/>
   <path transform="scale(.265)" d="m4.51 22.3v3.74l22.4 22.4v-3.74z" fill="#a00"/>
   <path transform="scale(.265)" d="m4.74 18.6c-.14.263-.227.559-.227.879v2.64l22.4 22.4v-3.74z" fill="#a00"/>
   <path transform="scale(.265)" d="m6.39 17.6c-.652 0-1.22.33-1.56.832l22.1 22.1v-3.74l-19.2-19.2z" fill="#a00"/>
   <path transform="scale(.265)" d="m12 17.6 14.9 14.9v-3.74l-11.2-11.2z" fill="#a00"/>
   <path transform="scale(.265)" d="m16 17.6 10.9 10.9v-3.74l-7.2-7.2z" fill="#a00"/>
   <path transform="scale(.265)" d="m20 17.6 6.94 6.94v-3.74l-3.2-3.2z" fill="#a00"/>
   <path d="m1.23 7.61 2.98-2.98" fill="none" stroke="#d45500" stroke-width=".065"/>
   <path d="m1.19 6.99 2.32-2.32" fill="#d45500" stroke="#d45500" stroke-width=".065"/>
   <path d="m1.19 6.07 1.39-1.39" fill="#d45500" stroke="#d45500" stroke-width=".065"/>
   <path d="m1.2 8.29 3.61-3.61" fill="#d45500" stroke="#d45500" stroke-width=".065"/>
   <path d="m1.2 8.88 4.23-4.23" fill="#d45500" stroke="#d45500" stroke-width=".065"/>
   <g fill="#d45500" stroke="#d45500" stroke-width=".065">
    <path d="m1.22 9.51 4.83-4.83"/>
    <path d="m1.2 10.2 5.5-5.5"/>
    <path d="m1.19 10.8 5.88-5.88"/>
   </g>
   <path d="m7.09 11.2-2.98 2.98" fill="none" stroke="#d45500" stroke-width=".065"/>
   <path d="m7.13 11.8-2.32 2.32" fill="#d45500" stroke="#d45500" stroke-width=".065"/>
   <path d="m7.13 12.7-1.39 1.39" fill="#d45500" stroke="#d45500" stroke-width=".065"/>
   <g fill="#d45500" stroke="#d45500" stroke-width=".065">
    <path d="m7.11 10.5-3.61 3.61"/>
    <path d="m7.11 9.89-4.23 4.23"/>
    <path d="m7.1 9.25-4.83 4.83"/>
    <path d="m7.11 8.6-5.5 5.5"/>
    <path d="m7.13 7.97-5.88 5.88"/>
    <path d="m1.19 13.3 5.94-5.94"/>
    <path d="m1.19 12.5 5.94-5.94"/>
    <path d="m1.19 11.4 5.94-5.94"/>
    <path d="m1.19 11.9 5.94-5.94"/>
   </g>
   <path transform="scale(.265)" d="m26.9 26.4-1.04 1.04 1.04 1.04z" fill="#a00"/>
   <rect x="1.19" y="4.65" width="5.93" height="9.48" ry=".496" fill="none" stroke="#999" stroke-linecap="round" stroke-linejoin="round" stroke-width=".065"/>
  </g>
  <g transform="matrix(-.731 .499 .873 .441 6.37 -16.8)">
   <rect x="1.19" y="4.65" width="5.93" height="9.48" ry=".496" fill="#800000" stroke="#999" stroke-linecap="round" stroke-linejoin="round" stroke-width=".065"/>
   <path transform="scale(.265)" d="m4.51 42.3v3.74l7.31 7.31h3.74z" fill="#a00"/>
   <path transform="scale(.265)" d="m8 17.6 18.9 18.9v-3.74l-15.2-15.2z" fill="#a00"/>
   <path transform="scale(.265)" d="m4.51 46.3v3.74l3.31 3.31h3.74z" fill="#a00"/>
   <path transform="scale(.265)" d="m4.51 38.3v3.74l11.3 11.3h3.74z" fill="#a00"/>
   <path transform="scale(.265)" d="m4.51 34.3v3.74l15.3 15.3h3.74z" fill="#a00"/>
   <path transform="scale(.265)" d="m4.51 30.3v3.74l19.3 19.3h1.23c.683 0 1.27-.364 1.6-.906z" fill="#a00"/>
   <path transform="scale(.265)" d="m4.51 26.3v3.74l22.2 22.2c.115-.244.186-.514.186-.803v-2.75z" fill="#a00"/>
   <path transform="scale(.265)" d="m4.51 22.3v3.74l22.4 22.4v-3.74z" fill="#a00"/>
   <path transform="scale(.265)" d="m4.74 18.6c-.14.263-.227.559-.227.879v2.64l22.4 22.4v-3.74z" fill="#a00"/>
   <path transform="scale(.265)" d="m6.39 17.6c-.652 0-1.22.33-1.56.832l22.1 22.1v-3.74l-19.2-19.2z" fill="#a00"/>
   <path transform="scale(.265)" d="m12 17.6 14.9 14.9v-3.74l-11.2-11.2z" fill="#a00"/>
   <path transform="scale(.265)" d="m16 17.6 10.9 10.9v-3.74l-7.2-7.2z" fill="#a00"/>
   <path transform="scale(.265)" d="m20 17.6 6.94 6.94v-3.74l-3.2-3.2z" fill="#a00"/>
   <path d="m1.23 7.61 2.98-2.98" fill="none" stroke="#d45500" stroke-width=".065"/>
   <path d="m1.19 6.99 2.32-2.32" fill="#d45500" stroke="#d45500" stroke-width=".065"/>
   <path d="m1.19 6.07 1.39-1.39" fill="#d45500" stroke="#d45500" stroke-width=".065"/>
   <path d="m1.2 8.29 3.61-3.61" fill="#d45500" stroke="#d45500" stroke-width=".065"/>
   <path d="m1.2 8.88 4.23-4.23" fill="#d45500" stroke="#d45500" stroke-width=".065"/>
   <g fill="#d45500" stroke="#d45500" stroke-width=".065">
    <path d="m1.22 9.51 4.83-4.83"/>
    <path d="m1.2 10.2 5.5-5.5"/>
    <path d="m1.19 10.8 5.88-5.88"/>
   </g>
   <path d="m7.09 11.2-2.98 2.98" fill="none" stroke="#d45500" stroke-width=".065"/>
   <path d="m7.13 11.8-2.32 2.32" fill="#d45500" stroke="#d45500" stroke-width=".065"/>
   <path d="m7.13 12.7-1.39 1.39" fill="#d45500" stroke="#d45500" stroke-width=".065"/>
   <g fill="#d45500" stroke="#d45500" stroke-width=".065">
    <path d="m7.11 10.5-3.61 3.61"/>
    <path d="m7.11 9.89-4.23 4.23"/>
    <path d="m7.1 9.25-4.83 4.83"/>
    <path d="m7.11 8.6-5.5 5.5"/>
    <path d="m7.13 7.97-5.88 5.88"/>
    <path d="m1.19 13.3 5.94-5.94"/>
    <path d="m1.19 12.5 5.94-5.94"/>
    <path d="m1.19 11.4 5.94-5.94"/>
    <path d="m1.19 11.9 5.94-5.94"/>
   </g>
   <path transform="scale(.265)" d="m26.9 26.4-1.04 1.04 1.04 1.04z" fill="#a00"/>
   <rect x="1.19" y="4.65" width="5.93" height="9.48" ry=".496" fill="none" stroke="#999" stroke-linecap="round" stroke-linejoin="round" stroke-width=".065"/>
  </g>
  <g transform="matrix(-.731 .499 .873 .441 6.37 -16.9)">
   <rect x="1.19" y="4.65" width="5.93" height="9.48" ry=".496" fill="#800000" stroke="#999" stroke-linecap="round" stroke-linejoin="round" stroke-width=".065"/>
   <path transform="scale(.265)" d="m4.51 42.3v3.74l7.31 7.31h3.74z" fill="#a00"/>
   <path transform="scale(.265)" d="m8 17.6 18.9 18.9v-3.74l-15.2-15.2z" fill="#a00"/>
   <path transform="scale(.265)" d="m4.51 46.3v3.74l3.31 3.31h3.74z" fill="#a00"/>
   <path transform="scale(.265)" d="m4.51 38.3v3.74l11.3 11.3h3.74z" fill="#a00"/>
   <path transform="scale(.265)" d="m4.51 34.3v3.74l15.3 15.3h3.74z" fill="#a00"/>
   <path transform="scale(.265)" d="m4.51 30.3v3.74l19.3 19.3h1.23c.683 0 1.27-.364 1.6-.906z" fill="#a00"/>
   <path transform="scale(.265)" d="m4.51 26.3v3.74l22.2 22.2c.115-.244.186-.514.186-.803v-2.75z" fill="#a00"/>
   <path transform="scale(.265)" d="m4.51 22.3v3.74l22.4 22.4v-3.74z" fill="#a00"/>
   <path transform="scale(.265)" d="m4.74 18.6c-.14.263-.227.559-.227.879v2.64l22.4 22.4v-3.74z" fill="#a00"/>
   <path transform="scale(.265)" d="m6.39 17.6c-.652 0-1.22.33-1.56.832l22.1 22.1v-3.74l-19.2-19.2z" fill="#a00"/>
   <path transform="scale(.265)" d="m12 17.6 14.9 14.9v-3.74l-11.2-11.2z" fill="#a00"/>
   <path transform="scale(.265)" d="m16 17.6 10.9 10.9v-3.74l-7.2-7.2z" fill="#a00"/>
   <path transform="scale(.265)" d="m20 17.6 6.94 6.94v-3.74l-3.2-3.2z" fill="#a00"/>
   <path d="m1.23 7.61 2.98-2.98" fill="none" stroke="#d45500" stroke-width=".065"/>
   <path d="m1.19 6.99 2.32-2.32" fill="#d45500" stroke="#d45500" stroke-width=".065"/>
   <path d="m1.19 6.07 1.39-1.39" fill="#d45500" stroke="#d45500" stroke-width=".065"/>
   <path d="m1.2 8.29 3.61-3.61" fill="#d45500" stroke="#d45500" stroke-width=".065"/>
   <path d="m1.2 8.88 4.23-4.23" fill="#d45500" stroke="#d45500" stroke-width=".065"/>
   <g fill="#d45500" stroke="#d45500" stroke-width=".065">
    <path d="m1.22 9.51 4.83-4.83"/>
    <path d="m1.2 10.2 5.5-5.5"/>
    <path d="m1.19 10.8 5.88-5.88"/>
   </g>
   <path d="m7.09 11.2-2.98 2.98" fill="none" stroke="#d45500" stroke-width=".065"/>
   <path d="m7.13 11.8-2.32 2.32" fill="#d45500" stroke="#d45500" stroke-width=".065"/>
   <path d="m7.13 12.7-1.39 1.39" fill="#d45500" stroke="#d45500" stroke-width=".065"/>
   <g fill="#d45500" stroke="#d45500" stroke-width=".065">
    <path d="m7.11 10.5-3.61 3.61"/>
    <path d="m7.11 9.89-4.23 4.23"/>
    <path d="m7.1 9.25-4.83 4.83"/>
    <path d="m7.11 8.6-5.5 5.5"/>
    <path d="m7.13 7.97-5.88 5.88"/>
    <path d="m1.19 13.3 5.94-5.94"/>
    <path d="m1.19 12.5 5.94-5.94"/>
    <path d="m1.19 11.4 5.94-5.94"/>
    <path d="m1.19 11.9 5.94-5.94"/>
   </g>
   <path transform="scale(.265)" d="m26.9 26.4-1.04 1.04 1.04 1.04z" fill="#a00"/>
   <rect x="1.19" y="4.65" width="5.93" height="9.48" ry=".496" fill="none" stroke="#999" stroke-linecap="round" stroke-linejoin="round" stroke-width=".065"/>
  </g>
  <g transform="matrix(-.731 .499 .873 .441 6.37 -17)">
   <rect x="1.19" y="4.65" width="5.93" height="9.48" ry=".496" fill="#800000" stroke="#999" stroke-linecap="round" stroke-linejoin="round" stroke-width=".065"/>
   <path transform="scale(.265)" d="m4.51 42.3v3.74l7.31 7.31h3.74z" fill="#a00"/>
   <path transform="scale(.265)" d="m8 17.6 18.9 18.9v-3.74l-15.2-15.2z" fill="#a00"/>
   <path transform="scale(.265)" d="m4.51 46.3v3.74l3.31 3.31h3.74z" fill="#a00"/>
   <path transform="scale(.265)" d="m4.51 38.3v3.74l11.3 11.3h3.74z" fill="#a00"/>
   <path transform="scale(.265)" d="m4.51 34.3v3.74l15.3 15.3h3.74z" fill="#a00"/>
   <path transform="scale(.265)" d="m4.51 30.3v3.74l19.3 19.3h1.23c.683 0 1.27-.364 1.6-.906z" fill="#a00"/>
   <path transform="scale(.265)" d="m4.51 26.3v3.74l22.2 22.2c.115-.244.186-.514.186-.803v-2.75z" fill="#a00"/>
   <path transform="scale(.265)" d="m4.51 22.3v3.74l22.4 22.4v-3.74z" fill="#a00"/>
   <path transform="scale(.265)" d="m4.74 18.6c-.14.263-.227.559-.227.879v2.64l22.4 22.4v-3.74z" fill="#a00"/>
   <path transform="scale(.265)" d="m6.39 17.6c-.652 0-1.22.33-1.56.832l22.1 22.1v-3.74l-19.2-19.2z" fill="#a00"/>
   <path transform="scale(.265)" d="m12 17.6 14.9 14.9v-3.74l-11.2-11.2z" fill="#a00"/>
   <path transform="scale(.265)" d="m16 17.6 10.9 10.9v-3.74l-7.2-7.2z" fill="#a00"/>
   <path transform="scale(.265)" d="m20 17.6 6.94 6.94v-3.74l-3.2-3.2z" fill="#a00"/>
   <path d="m1.23 7.61 2.98-2.98" fill="none" stroke="#d45500" stroke-width=".065"/>
   <path d="m1.19 6.99 2.32-2.32" fill="#d45500" stroke="#d45500" stroke-width=".065"/>
   <path d="m1.19 6.07 1.39-1.39" fill="#d45500" stroke="#d45500" stroke-width=".065"/>
   <path d="m1.2 8.29 3.61-3.61" fill="#d45500" stroke="#d45500" stroke-width=".065"/>
   <path d="m1.2 8.88 4.23-4.23" fill="#d45500" stroke="#d45500" stroke-width=".065"/>
   <g fill="#d45500" stroke="#d45500" stroke-width=".065">
    <path d="m1.22 9.51 4.83-4.83"/>
    <path d="m1.2 10.2 5.5-5.5"/>
    <path d="m1.19 10.8 5.88-5.88"/>
   </g>
   <path d="m7.09 11.2-2.98 2.98" fill="none" stroke="#d45500" stroke-width=".065"/>
   <path d="m7.13 11.8-2.32 2.32" fill="#d45500" stroke="#d45500" stroke-width=".065"/>
   <path d="m7.13 12.7-1.39 1.39" fill="#d45500" stroke="#d45500" stroke-width=".065"/>
   <g fill="#d45500" stroke="#d45500" stroke-width=".065">
    <path d="m7.11 10.5-3.61 3.61"/>
    <path d="m7.11 9.89-4.23 4.23"/>
    <path d="m7.1 9.25-4.83 4.83"/>
    <path d="m7.11 8.6-5.5 5.5"/>
    <path d="m7.13 7.97-5.88 5.88"/>
    <path d="m1.19 13.3 5.94-5.94"/>
    <path d="m1.19 12.5 5.94-5.94"/>
    <path d="m1.19 11.4 5.94-5.94"/>
    <path d="m1.19 11.9 5.94-5.94"/>
   </g>
   <path transform="scale(.265)" d="m26.9 26.4-1.04 1.04 1.04 1.04z" fill="#a00"/>
   <rect x="1.19" y="4.65" width="5.93" height="9.48" ry=".496" fill="none" stroke="#999" stroke-linecap="round" stroke-linejoin="round" stroke-width=".065"/>
  </g>
  <g transform="matrix(-.731 .499 .873 .441 6.37 -17.1)">
   <rect x="1.19" y="4.65" width="5.93" height="9.48" ry=".496" fill="#800000" stroke="#999" stroke-linecap="round" stroke-linejoin="round" stroke-width=".065"/>
   <path transform="scale(.265)" d="m4.51 42.3v3.74l7.31 7.31h3.74z" fill="#a00"/>
   <path transform="scale(.265)" d="m8 17.6 18.9 18.9v-3.74l-15.2-15.2z" fill="#a00"/>
   <path transform="scale(.265)" d="m4.51 46.3v3.74l3.31 3.31h3.74z" fill="#a00"/>
   <path transform="scale(.265)" d="m4.51 38.3v3.74l11.3 11.3h3.74z" fill="#a00"/>
   <path transform="scale(.265)" d="m4.51 34.3v3.74l15.3 15.3h3.74z" fill="#a00"/>
   <path transform="scale(.265)" d="m4.51 30.3v3.74l19.3 19.3h1.23c.683 0 1.27-.364 1.6-.906z" fill="#a00"/>
   <path transform="scale(.265)" d="m4.51 26.3v3.74l22.2 22.2c.115-.244.186-.514.186-.803v-2.75z" fill="#a00"/>
   <path transform="scale(.265)" d="m4.51 22.3v3.74l22.4 22.4v-3.74z" fill="#a00"/>
   <path transform="scale(.265)" d="m4.74 18.6c-.14.263-.227.559-.227.879v2.64l22.4 22.4v-3.74z" fill="#a00"/>
   <path transform="scale(.265)" d="m6.39 17.6c-.652 0-1.22.33-1.56.832l22.1 22.1v-3.74l-19.2-19.2z" fill="#a00"/>
   <path transform="scale(.265)" d="m12 17.6 14.9 14.9v-3.74l-11.2-11.2z" fill="#a00"/>
   <path transform="scale(.265)" d="m16 17.6 10.9 10.9v-3.74l-7.2-7.2z" fill="#a00"/>
   <path transform="scale(.265)" d="m20 17.6 6.94 6.94v-3.74l-3.2-3.2z" fill="#a00"/>
   <path d="m1.23 7.61 2.98-2.98" fill="none" stroke="#d45500" stroke-width=".065"/>
   <path d="m1.19 6.99 2.32-2.32" fill="#d45500" stroke="#d45500" stroke-width=".065"/>
   <path d="m1.19 6.07 1.39-1.39" fill="#d45500" stroke="#d45500" stroke-width=".065"/>
   <path d="m1.2 8.29 3.61-3.61" fill="#d45500" stroke="#d45500" stroke-width=".065"/>
   <path d="m1.2 8.88 4.23-4.23" fill="#d45500" stroke="#d45500" stroke-width=".065"/>
   <g fill="#d45500" stroke="#d45500" stroke-width=".065">
    <path d="m1.22 9.51 4.83-4.83"/>
    <path d="m1.2 10.2 5.5-5.5"/>
    <path d="m1.19 10.8 5.88-5.88"/>
   </g>
   <path d="m7.09 11.2-2.98 2.98" fill="none" stroke="#d45500" stroke-width=".065"/>
   <path d="m7.13 11.8-2.32 2.32" fill="#d45500" stroke="#d45500" stroke-width=".065"/>
   <path d="m7.13 12.7-1.39 1.39" fill="#d45500" stroke="#d45500" stroke-width=".065"/>
   <g fill="#d45500" stroke="#d45500" stroke-width=".065">
    <path d="m7.11 10.5-3.61 3.61"/>
    <path d="m7.11 9.89-4.23 4.23"/>
    <path d="m7.1 9.25-4.83 4.83"/>
    <path d="m7.11 8.6-5.5 5.5"/>
    <path d="m7.13 7.97-5.88 5.88"/>
    <path d="m1.19 13.3 5.94-5.94"/>
    <path d="m1.19 12.5 5.94-5.94"/>
    <path d="m1.19 11.4 5.94-5.94"/>
    <path d="m1.19 11.9 5.94-5.94"/>
   </g>
   <path transform="scale(.265)" d="m26.9 26.4-1.04 1.04 1.04 1.04z" fill="#a00"/>
   <rect x="1.19" y="4.65" width="5.93" height="9.48" ry=".496" fill="none" stroke="#999" stroke-linecap="round" stroke-linejoin="round" stroke-width=".065"/>
  </g>
  <g transform="matrix(-.731 .499 .873 .441 6.37 -17.2)">
   <rect x="1.19" y="4.65" width="5.93" height="9.48" ry=".496" fill="#800000" stroke="#999" stroke-linecap="round" stroke-linejoin="round" stroke-width=".065"/>
   <path transform="scale(.265)" d="m4.51 42.3v3.74l7.31 7.31h3.74z" fill="#a00"/>
   <path transform="scale(.265)" d="m8 17.6 18.9 18.9v-3.74l-15.2-15.2z" fill="#a00"/>
   <path transform="scale(.265)" d="m4.51 46.3v3.74l3.31 3.31h3.74z" fill="#a00"/>
   <path transform="scale(.265)" d="m4.51 38.3v3.74l11.3 11.3h3.74z" fill="#a00"/>
   <path transform="scale(.265)" d="m4.51 34.3v3.74l15.3 15.3h3.74z" fill="#a00"/>
   <path transform="scale(.265)" d="m4.51 30.3v3.74l19.3 19.3h1.23c.683 0 1.27-.364 1.6-.906z" fill="#a00"/>
   <path transform="scale(.265)" d="m4.51 26.3v3.74l22.2 22.2c.115-.244.186-.514.186-.803v-2.75z" fill="#a00"/>
   <path transform="scale(.265)" d="m4.51 22.3v3.74l22.4 22.4v-3.74z" fill="#a00"/>
   <path transform="scale(.265)" d="m4.74 18.6c-.14.263-.227.559-.227.879v2.64l22.4 22.4v-3.74z" fill="#a00"/>
   <path transform="scale(.265)" d="m6.39 17.6c-.652 0-1.22.33-1.56.832l22.1 22.1v-3.74l-19.2-19.2z" fill="#a00"/>
   <path transform="scale(.265)" d="m12 17.6 14.9 14.9v-3.74l-11.2-11.2z" fill="#a00"/>
   <path transform="scale(.265)" d="m16 17.6 10.9 10.9v-3.74l-7.2-7.2z" fill="#a00"/>
   <path transform="scale(.265)" d="m20 17.6 6.94 6.94v-3.74l-3.2-3.2z" fill="#a00"/>
   <path d="m1.23 7.61 2.98-2.98" fill="none" stroke="#d45500" stroke-width=".065"/>
   <path d="m1.19 6.99 2.32-2.32" fill="#d45500" stroke="#d45500" stroke-width=".065"/>
   <path d="m1.19 6.07 1.39-1.39" fill="#d45500" stroke="#d45500" stroke-width=".065"/>
   <path d="m1.2 8.29 3.61-3.61" fill="#d45500" stroke="#d45500" stroke-width=".065"/>
   <path d="m1.2 8.88 4.23-4.23" fill="#d45500" stroke="#d45500" stroke-width=".065"/>
   <g fill="#d45500" stroke="#d45500" stroke-width=".065">
    <path d="m1.22 9.51 4.83-4.83"/>
    <path d="m1.2 10.2 5.5-5.5"/>
    <path d="m1.19 10.8 5.88-5.88"/>
   </g>
   <path d="m7.09 11.2-2.98 2.98" fill="none" stroke="#d45500" stroke-width=".065"/>
   <path d="m7.13 11.8-2.32 2.32" fill="#d45500" stroke="#d45500" stroke-width=".065"/>
   <path d="m7.13 12.7-1.39 1.39" fill="#d45500" stroke="#d45500" stroke-width=".065"/>
   <g fill="#d45500" stroke="#d45500" stroke-width=".065">
    <path d="m7.11 10.5-3.61 3.61"/>
    <path d="m7.11 9.89-4.23 4.23"/>
    <path d="m7.1 9.25-4.83 4.83"/>
    <path d="m7.11 8.6-5.5 5.5"/>
    <path d="m7.13 7.97-5.88 5.88"/>
    <path d="m1.19 13.3 5.94-5.94"/>
    <path d="m1.19 12.5 5.94-5.94"/>
    <path d="m1.19 11.4 5.94-5.94"/>
    <path d="m1.19 11.9 5.94-5.94"/>
   </g>
   <path transform="scale(.265)" d="m26.9 26.4-1.04 1.04 1.04 1.04z" fill="#a00"/>
   <rect x="1.19" y="4.65" width="5.93" height="9.48" ry=".496" fill="none" stroke="#999" stroke-linecap="round" stroke-linejoin="round" stroke-width=".065"/>
  </g>
 </g>
 <ellipse cx="5.5" cy="14.1" rx="4.76" ry=".635" fill="url(#radialGradient4326)"/>
 <g transform="matrix(1.12 0 0 1.12 10.4 -.242)">
  <rect x="-7.29" y="3.05" width="5.93" height="9.48" ry=".496" fill="#f2f2f2" stroke="#999" stroke-linecap="round" stroke-linejoin="round" stroke-width=".065"/>
  <path transform="scale(.265)" d="m-25.7 11.5c-1.04 0-1.88.838-1.88 1.88v15.7h22.4v-15.7c0-1.04-.836-1.88-1.88-1.88z" fill="#1a1a1a"/>
  <rect x="-6.8" y="8.1" width="3.14" height=".501" ry=".251" fill="#333"/>
  <rect x="-6.8" y="11" width="3.74" height=".903" ry=".451" fill="#5a5aff"/>
  <g fill="#808080">
   <rect x="-6.8" y="9.18" width="4.2" height=".184" ry=".0919"/>
   <rect x="-6.8" y="9.71" width="4.65" height=".184" ry=".0919"/>
   <rect x="-6.8" y="10.2" width="2.71" height=".184" ry=".0919"/>
  </g>
  <rect x="-7.29" y="3.05" width="5.93" height="9.48" ry=".496" fill="none" stroke="#999" stroke-linecap="round" stroke-linejoin="round" stroke-width=".065"/>
 </g>
</svg>
